<svg height="32" viewBox="0 0 32 32" width="32" xmlns="http://www.w3.org/2000/svg"><path d="m13.084 16.249q-.356.142-.676.284t-.533.213q-.036 0-.391.124t-.96.302l-.071.036-1.493.498q-.107 0-.267.124t-.338.302l-.391.604-.071.107-.036.142-.498.64q-.107.107-.267.178t-.338.071l-.391-.036-.427-.071q-.356-.107-.711-.302t-.711-.444q-.32-.284-.498-.587t-.178-.622q0-.782.213-1.529t.604-1.422q.356-.711.818-1.333t.996-1.12q.213-.213.427-.48t.427-.516q.107-.142.249-.338t.284-.409q.249-.533.409-1.102t.16-1.138q0-.249.053-.427t.124-.32l.533-.604.498-.391.498-.462.711-.747q.107-.213.267-.498t.302-.604l.107-.391.107-.498v-.071l.249-.96q.107-.249.284-.356t.427-.107l.676.711.711.747.107.178.142.213q.32.427.693.836t.764.764.907.533 1.084.178q.213 0 .64.107t1.031.284q.604.213 1.262.604t1.333.889q.818.604 1.6 1.582t1.529 2.222q.356.604.64 1.316t.462 1.493q.142.747.249 1.671t.107 1.956v1.138q0 .213.018.373t.053.267v2.347q0 .427-.16.64t-.444.213h-.32l-.178-.036-4.302-.533h-3.698l-3.058.284-2.631.213-1.387.107-1.28.107q-.107 0-.196-.018t-.16-.053q-.036-.036-.071-.124t-.036-.16l.107-.391.32-.498.462-.462.498-.427.107-.071.107-.107 1.209-.533q.249-.107.444-.178t.338-.142q.107-.036.302-.142t.48-.249q1.209-.533 2.169-1.422.498-.427.747-1.013t.249-1.298l-.036-.356-.036-.391q-.036-.107-.071-.231t-.036-.16q-.036-.071-.089-.196t-.089-.231q-.071-.142-.142-.267t-.142-.196h-.107l-.107.071-.142.107q-.427.711-.96 1.227t-1.173.764zm-6.4 14.293v-.96l.107-1.138q.036-.569.196-1.049t.373-.942q.213-.427.676-.693t1.031-.302l1.28-.071 1.387-.142 2.631-.213 3.093-.32q.391 0 .836.036t.942.036q.498.036 1.031.107t1.102.142q.569 0 1.244.036t1.316.142q.676.071 1.262.142t1.049.142q.462.036.836.356t.587.889q.036.107.124.356t.16.569.124.676.053.747l.036.711v.747h-21.476z"/></svg>