<svg enable-background="new 0 0 76.00 76.00" height="76" viewBox="0 0 76 76" width="76" xmlns="http://www.w3.org/2000/svg"><path d="m29.6875 38 4.7267-2.8873.3577-4.2921-.4663-.2095c-2.1112-1.0555-3.1667-3.1667-4.2223-5.2778h5.9375l.132-3.1666h-2.9028v-3.1667h3.0347l.132-3.1667h3.1666l.132 3.1667h3.0347v3.1667h-2.9028l.132 3.1666h5.9375c-1.0556 2.1111-2.1111 4.2223-4.2223 5.2778l-.4663.2095.3577 4.2921 4.7267 2.8873h-4.4861l.9236 10.6875 2.375.3958.7917 1.5834h-3.0348l4.6181 7.9166h1.5833v1.5834h-22.1666v-1.5834h1.5833l4.618-7.9166h-3.0347l.7917-1.5834 2.375-.3958.9236-10.6875z" stroke-linejoin="round" stroke-width=".2"/></svg>