<svg enable-background="new 0 0 76.00 76.00" height="76" viewBox="0 0 76 76" width="76" xmlns="http://www.w3.org/2000/svg"><path d="m38 15.4375c1.3788 0 3.3434 1.0567 3.7781 1.9792h7.3052l-6.3333 7.9166.1075 5.4264 6.2258 2.4903h-6.4897c.3556 5.4731.6851 9.6306 1.6 12.833l4.0981 1.417h-2.8695c3.2797 9.8679 8.4111 9.4346 8.4111 12.6667h-31.6666c0-3.2321 5.1314-2.7988 8.4111-12.6667h-2.8695l4.0981-1.417c.9148-3.2024 1.2444-7.36 1.6-12.833h-6.4897l6.2258-2.4903.1075-5.4264-6.3333-7.9166h7.3051c.4348-.9225 2.3994-1.9792 3.7782-1.9792z" stroke-linejoin="round" stroke-width=".2"/></svg>