<svg viewBox="0 0 1024 1089.841" xmlns="http://www.w3.org/2000/svg"><path d="M603.58 133.986C654.49 200.94 711.863 266.95 776.21 331.96c106.377 26.76 68.62 121.646 10.055 120.984-57.903-.66-47.415-30.936-86.382-41.33-14.646-3.912-30.37-3.326-50.665-4.025-127.39-4.348-138.18 41.215-135.554-40.008 1.758-54.464-46.375-42.256-43.314 23.452 5.14 109.853 71.037 182.157 148.556 249.906 80.94 70.735 76.858 121.324-14.438 189.357H296.414C91.844 602.957 160.708 96.04 485.3 82.83l8.975.076 46.527-38.08c21.166-17.29 18.01-16.25 16.422 6.56l-2.25 32.012 71.397.567c25.816.208 31.07-5.896 9.034 16.95l-31.824 33.072zM274.132 834.832h347.154V872.1h36.227v53.272h18.482v42.596h26.665v44.316h17.727v44.637H180.475v-44.636h17.745v-44.316h26.665v-42.596h18.463V872.1h30.785V834.83z"/></svg>