<svg enable-background="new 0 0 76.00 76.00" height="76" viewBox="0 0 76 76" width="76" xmlns="http://www.w3.org/2000/svg"><path d="m34.8333 15.8333h6.3334v1.5834h-1.5834v1.5833c.4304 0 1.5629.585 2.7612 1.5006l-4.6665 3.972c-.66.5737-.8655.4649-.5521 1.8379 1.2699.2103 1.178-.0617 1.8379-.6354l4.9737-3.5084c2.2642 2.4684 3.6342 5.7898-2.0432 7.6915l-.0974 2.0646 6.8906 4.4939h-6.9509c.1925 17.9002 6.1199 14.3828 8.9301 23.75h-25.3334c2.8102-9.3672 8.7376-5.8498 8.9301-23.75h-6.9509l6.8906-4.4939-.0973-2.0621c-9.7798-3.2091 2.3109-8.7981 2.3109-10.8607v-1.5833h-1.5834z" stroke-linejoin="round" stroke-width=".2"/></svg>