<svg viewBox="0 0 32 32" xmlns="http://www.w3.org/2000/svg"><path d="m16 3c-1.09375 0-2 .90625-2 2 0 .441406.15625.855469.40625 1.1875-.355469.375-.761719.824219-1.1875 1.34375-1.046875 1.28125-2.21875 2.761719-2.21875 4.46875 0 1.136719.414063 2.160156 1.0625 3h-.0625c-.03125 0-.0625 0-.09375 0-.550781.027344-.980469.496094-.953125 1.046875s.496094.980469 1.046875.953125h.5l-1.40625 3.5625-.71875 1.4375h-1.375c-.03125 0-.0625 0-.09375 0-.550781.027344-.980469.496094-.953125 1.046875s.496094.980469 1.046875.953125l-1.8125 2.40625-.1875.25v2.34375h18v-2.34375l-.1875-.25-1.8125-2.40625c.359375.003906.695313-.183594.878906-.496094.179688-.3125.179688-.695312 0-1.007812-.183593-.3125-.519531-.5-.878906-.496094h-1.375l-.71875-1.4375-1.40625-3.5625h.5c.359375.003906.695313-.183594.878906-.496094.179688-.3125.179688-.695312 0-1.007812-.183593-.3125-.519531-.5-.878906-.496094.628906-.839844 1-1.878906 1-3 0-1.707031-1.171875-3.1875-2.21875-4.46875-.425781-.519531-.832031-.96875-1.1875-1.34375.25-.332031.40625-.746094.40625-1.1875 0-1.09375-.90625-2-2-2zm0 4.46875c.363281.367188.609375.597656 1.21875 1.34375.953125 1.167969 1.78125 2.6875 1.78125 3.1875 0 1.679688-1.300781 3-2.96875 3s-3.03125-1.339844-3.03125-3c0-.5.828125-2.019531 1.78125-3.1875.609375-.746094.855469-.976562 1.21875-1.34375zm-1.3125 9.53125h2.625l1.75 4.375.03125.03125v.03125l.28125.5625h-6.75l.28125-.5625v-.03125l.03125-.03125zm-3.1875 7h9l2.25 3h-13.5z"/></svg>