<svg enable-background="new 0 0 76.00 76.00" height="76" viewBox="0 0 76 76" width="76" xmlns="http://www.w3.org/2000/svg"><path d="m28.5 15.8333h3.9583l.7917 4.75h1.5833v-4.75h6.3334v4.75h1.5833l1.5833-4.75h3.1667c0 4.2223 0 8.4445-3.1667 10.5556-.3844.2563-.4197.0857-.8862.2797l.8862 14.4981h4.3542v1.5833l-2.7708.3958c0 4.75 5.1458 10.6875 5.1458 17.0209h-26.125c0-6.3334 5.1458-12.2709 5.1458-17.0209l-2.7708-.3958v-1.5833h4.3542l.8862-14.4981c-.4665-.1941-.5018-.0234-.8862-.2797-3.1667-2.1111-3.1667-6.3333-3.1667-10.5556z" stroke-linejoin="round" stroke-width=".2"/></svg>